<svg width="237" height="67" xmlns="http://www.w3.org/2000/svg" xmlns:xlink="http://www.w3.org/1999/xlink" overflow="hidden"><defs><clipPath id="clip0"><rect x="724" y="327" width="237" height="67"/></clipPath></defs><g clip-path="url(#clip0)" transform="translate(-724 -327)"><text font-family="Cambria Math,Cambria Math_MSFontService,sans-serif" font-weight="400" font-size="24" transform="translate(736.589 371)">𝐺</text><path d="M775.191 352.774C777.472 353.376 779.224 354.675 780.447 356.671 781.67 358.667 782.281 361.075 782.281 363.895 782.281 366.723 781.672 369.132 780.453 371.12 779.234 373.108 777.48 374.403 775.191 375.005L774.91 374.102C776.715 373.501 778.056 372.313 778.935 370.54 779.814 368.766 780.254 366.512 780.254 363.778 780.254 361.137 779.816 358.944 778.941 357.198 778.066 355.452 776.711 354.278 774.875 353.677ZM762.009 352.774 762.325 353.677C760.497 354.278 759.143 355.452 758.265 357.198 757.386 358.944 756.946 361.137 756.946 363.778 756.946 366.512 757.386 368.766 758.265 370.54 759.143 372.313 760.485 373.501 762.29 374.102L762.009 375.005C759.72 374.403 757.966 373.108 756.747 371.12 755.528 369.132 754.919 366.723 754.919 363.895 754.919 361.075 755.53 358.667 756.753 356.671 757.976 354.675 759.727 353.376 762.009 352.774Z" fill-rule="evenodd"/><text font-family="Cambria Math,Cambria Math_MSFontService,sans-serif" font-weight="400" font-size="24" transform="translate(762.77 371)">𝑠<tspan font-size="24" x="28.2866" y="0">=</tspan><tspan font-size="24" x="105.847" y="-18">16</tspan><tspan font-size="24" x="52.9533" y="16">𝑠</tspan><tspan font-size="18" x="65.2599" y="9">2</tspan><tspan font-size="24" x="81.7533" y="16">+</tspan><tspan font-size="24" x="105.087" y="16">8</tspan><tspan font-size="24" x="118.42" y="16">𝑠</tspan><tspan font-size="24" x="135.413" y="16">+</tspan><tspan font-size="24" x="158.747" y="16">16</tspan></text><path d="M815.469 362.741 859.469 362.741 903.469 362.741 947.469 362.741 947.469 364.741 903.469 364.741 859.469 364.741 815.469 364.741Z" fill="#836967" fill-rule="evenodd"/></g></svg>