<svg width="241" height="67" xmlns="http://www.w3.org/2000/svg" xmlns:xlink="http://www.w3.org/1999/xlink" overflow="hidden"><defs><clipPath id="clip0"><rect x="315" y="327" width="241" height="67"/></clipPath></defs><g clip-path="url(#clip0)" transform="translate(-315 -327)"><text font-family="Cambria Math,Cambria Math_MSFontService,sans-serif" font-weight="400" font-size="24" transform="translate(336.293 370)">𝐺</text><path d="M374.895 352.481C377.176 353.083 378.928 354.382 380.15 356.378 381.373 358.374 381.984 360.782 381.984 363.602 381.984 366.431 381.375 368.839 380.156 370.827 378.938 372.815 377.184 374.11 374.895 374.712L374.613 373.81C376.418 373.208 377.76 372.02 378.639 370.247 379.518 368.474 379.957 366.22 379.957 363.485 379.957 360.845 379.52 358.651 378.645 356.905 377.77 355.159 376.414 353.985 374.578 353.384ZM361.712 352.481 362.028 353.384C360.2 353.985 358.847 355.159 357.968 356.905 357.089 358.651 356.65 360.845 356.65 363.485 356.65 366.22 357.089 368.474 357.968 370.247 358.847 372.02 360.189 373.208 361.993 373.81L361.712 374.712C359.423 374.11 357.669 372.815 356.45 370.827 355.232 368.839 354.622 366.431 354.622 363.602 354.622 360.782 355.234 358.374 356.456 356.378 357.679 354.382 359.431 353.083 361.712 352.481Z" fill="#836967" fill-rule="evenodd"/><text font-family="Cambria Math,Cambria Math_MSFontService,sans-serif" font-weight="400" font-size="24" transform="translate(362.473 370)">𝑠<tspan font-size="24" x="28.2867" y="0">=</tspan><tspan font-size="24" x="79.02" y="-18">3</tspan><tspan font-size="24" x="92.3533" y="-18">𝑠</tspan><tspan font-size="24" x="109.347" y="-18">+</tspan><tspan font-size="24" x="132.68" y="-18">5</tspan><tspan font-size="24" x="52.9533" y="17">𝑠</tspan><tspan font-size="18" x="65.26" y="9">2</tspan><tspan font-size="24" x="81.7533" y="17">+</tspan><tspan font-size="24" x="105.087" y="17">2</tspan><tspan font-size="24" x="118.42" y="17">𝑠</tspan><tspan font-size="24" x="135.413" y="17">+</tspan><tspan font-size="24" x="158.747" y="17">5</tspan></text><path d="M415.426 362.448 455.093 362.448 494.759 362.448 534.426 362.448 534.426 364.448 494.759 364.448 455.093 364.448 415.426 364.448Z" fill="#836967" fill-rule="evenodd"/></g></svg>