<svg width="237" height="66" xmlns="http://www.w3.org/2000/svg" xmlns:xlink="http://www.w3.org/1999/xlink" overflow="hidden"><defs><clipPath id="clip0"><rect x="724" y="327" width="237" height="66"/></clipPath></defs><g clip-path="url(#clip0)" transform="translate(-724 -327)"><text font-family="Cambria Math,Cambria Math_MSFontService,sans-serif" font-weight="400" font-size="24" transform="translate(736.59 370)">𝐺</text><path d="M775.191 352.48C777.473 353.082 779.225 354.38 780.447 356.377 781.67 358.373 782.281 360.781 782.281 363.601 782.281 366.429 781.672 368.838 780.453 370.826 779.234 372.814 777.481 374.109 775.191 374.711L774.91 373.808C776.715 373.207 778.057 372.019 778.936 370.246 779.815 368.472 780.254 366.218 780.254 363.484 780.254 360.843 779.816 358.65 778.941 356.904 778.066 355.158 776.711 353.984 774.875 353.382ZM762.009 352.48 762.325 353.382C760.497 353.984 759.144 355.158 758.265 356.904 757.386 358.65 756.946 360.843 756.946 363.484 756.946 366.218 757.386 368.472 758.265 370.246 759.144 372.019 760.486 373.207 762.29 373.808L762.009 374.711C759.72 374.109 757.966 372.814 756.747 370.826 755.529 368.838 754.919 366.429 754.919 363.601 754.919 360.781 755.53 358.373 756.753 356.377 757.976 354.38 759.728 353.082 762.009 352.48Z" fill-rule="evenodd"/><text font-family="Cambria Math,Cambria Math_MSFontService,sans-serif" font-weight="400" font-size="24" transform="translate(762.77 370)">𝑠<tspan font-size="24" x="28.2867" y="0">=</tspan><tspan fill="#836967" font-size="24" x="112.513" y="-18">4</tspan><tspan font-size="24" x="52.9533" y="17">4</tspan><tspan font-size="24" x="66.2867" y="17">𝑠</tspan><tspan font-size="18" x="78.5933" y="9">2</tspan><tspan font-size="24" x="95.0867" y="17">+</tspan><tspan font-size="24" x="118.42" y="17">2</tspan><tspan font-size="24" x="131.753" y="17">𝑠</tspan><tspan font-size="24" x="148.747" y="17">+</tspan><tspan font-size="24" x="172.08" y="17">4</tspan></text><path d="M815.47 362.447 859.47 362.447 903.47 362.447 947.47 362.447 947.47 364.447 903.47 364.447 859.47 364.447 815.47 364.447Z" fill="#836967" fill-rule="evenodd"/></g></svg>